# xmcd CD database file
#
# Track frame offsets:
#	150
#	24540
#	42321
#	62805
#	81798
#	105083
#	130228
#	150210
#	171481
#	189708
#	209567
#	233701
#	255443
#
# Disc length: 3710 seconds
#
# Revision: 3
# Processed by: cddbd v1.5.1PL0 Copyright (c) Steve Scherf et al.
# Submitted via: CDex 1.51
#
DISCID=a50e7c0d
DTITLE=玉置成実 - Greeting
DYEAR=2004
DGENRE=JPop
TTITLE0=Eternal Voice
TTITLE1=Believe
TTITLE2=day by day
TTITLE3=Complete
TTITLE4=Be Positive<光の中で輝いて>
TTITLE5=NEVER STOP MY HEART -君という奇蹟に-
TTITLE6=Shining Star ☆忘れないから☆
TTITLE7=Realize
TTITLE8=Naked
TTITLE9=Destiny
TTITLE10=明日の君
TTITLE11=Prayer
TTITLE12=Believe -Evidence01 Mix-
EXTD=YEAR: 2004
EXTT0=
EXTT1=
EXTT2=
EXTT3=
EXTT4=
EXTT5=
EXTT6=
EXTT7=
EXTT8=
EXTT9=
EXTT10=
EXTT11=
EXTT12=
PLAYORDER=
